<svg version="1.0" xmlns="http://www.w3.org/2000/svg" width="800.000000" height="800.000000" viewBox="0 0 800.000000 800.000000" preserveAspectRatio="xMidYMid meet">
  <metadata>
    <rdf:RDF xmlns:rdf="http://www.w3.org/1999/02/22-rdf-syntax-ns#" xmlns:rdfs="http://www.w3.org/2000/01/rdf-schema#" xmlns:dc="http://purl.org/dc/elements/1.1/">
      <rdf:Description dc:format="image/svg+xml" dc:Label="1" dc:ContentProducer="001191330110MACRLGPT8B00000" dc:ProduceID="324650999" dc:ReservedCode1="u6mO94OZ2d92Yz/zYM9jLTM/tZNO8b6hb6rnbc+AMPY=" dc:ContentPropagator="001191330110MACRLGPT8B00000" dc:PropagateID="324650999" dc:ReservedCode2="u6mO94OZ2d92Yz/zYM9jLTM/tZNO8b6hb6rnbc+AMPY="/>
    </rdf:RDF>
  </metadata>
  <g transform="translate(0.000000,800.000000) scale(0.100000,-0.100000)" fill="#000000" stroke="none">
    <path d="M2845 5473 c-16 -8 -45 -29 -62 -46 -67 -63 -64 -17 -61 -1019 l3 -906 30 -44 c20 -28 49 -52 84 -70 l55 -28 1099 0 c841 0 1109 3 1141 12 52 16 121 84 136 135 8 27 10 297 8 939 l-3 901 -30 48 c-20 32 -45 56 -74 72 l-44 23 -1126 0 c-1005 -1 -1129 -2 -1156 -17z m2223 -1045 l-3 -853 -1065 0 -1065 0 -3 853 -2 852 1070 0 1070 0 -2 -852z"/>
    <path d="M2290 3993 c1 -585 4 -872 12 -900 6 -24 28 -63 50 -88 71 -81 -51 -76 1668 -73 1463 3 1527 4 1562 22 21 10 51 32 68 49 61 62 60 46 60 989 l0 858 -110 0 -110 0 2 -850 3 -850 -1492 0 -1493 0 0 850 0 850 -110 0 -110 0 0 -857z"/>
    <path d="M3360 2615 l0 -105 640 0 640 0 0 105 0 105 -640 0 -640 0 0 -105z"/>
  </g>
</svg>